<svg width="20" height="20" viewBox="0 0 20 20" fill="none" xmlns="http://www.w3.org/2000/svg">
<path d="M1.66699 7.49984C1.66699 6.25368 1.66699 5.63061 1.93494 5.1665C2.11048 4.86247 2.36295 4.60999 2.66699 4.43445C3.13109 4.1665 3.75417 4.1665 5.00033 4.1665H15.0003C16.2465 4.1665 16.8696 4.1665 17.3337 4.43445C17.6377 4.60999 17.8902 4.86247 18.0657 5.1665C18.3337 5.63061 18.3337 6.25368 18.3337 7.49984C18.3337 7.81138 18.3337 7.96714 18.2667 8.08317C18.2228 8.15918 18.1597 8.2223 18.0837 8.26618C17.9676 8.33317 17.8119 8.33317 17.5003 8.33317H2.50032C2.18879 8.33317 2.03302 8.33317 1.91699 8.26618C1.84098 8.2223 1.77786 8.15918 1.73398 8.08317C1.66699 7.96714 1.66699 7.81138 1.66699 7.49984Z" fill="#21E786"/>
<path fill-rule="evenodd" clip-rule="evenodd" d="M2.25278 17.7475C1.66699 17.1618 1.66699 16.219 1.66699 14.3333V11C1.66699 10.5286 1.66699 10.2929 1.81344 10.1464C1.95989 10 2.19559 10 2.66699 10H17.3337C17.8051 10 18.0408 10 18.1872 10.1464C18.3337 10.2929 18.3337 10.5286 18.3337 11V14.3333C18.3337 16.219 18.3337 17.1618 17.7479 17.7475C17.1621 18.3333 16.2193 18.3333 14.3337 18.3333H5.66699C3.78137 18.3333 2.83857 18.3333 2.25278 17.7475ZM6.66699 13.1667C6.11471 13.1667 5.66699 13.6144 5.66699 14.1667C5.66699 14.719 6.11471 15.1667 6.66699 15.1667H13.3337C13.8859 15.1667 14.3337 14.719 14.3337 14.1667C14.3337 13.6144 13.8859 13.1667 13.3337 13.1667H6.66699Z" fill="#21E786"/>
<path d="M5.83301 2.5L5.83301 5" stroke="#21E786" stroke-width="2" stroke-linecap="round"/>
<path d="M14.167 2.5L14.167 5" stroke="#21E786" stroke-width="2" stroke-linecap="round"/>
</svg>
