<svg width="19" height="24" viewBox="0 0 19 24" fill="none" xmlns="http://www.w3.org/2000/svg">
<g clip-path="url(#clip0_1367_770)">
<path d="M18.725 11.3364L18.7242 11.3355L13.8256 6.4605C13.4586 6.09529 12.865 6.09665 12.4997 6.46368C12.1345 6.83067 12.1359 7.42425 12.5028 7.7895L15.7918 11.0625H0.9375C0.419719 11.0625 0 11.4822 0 12C0 12.5178 0.419719 12.9375 0.9375 12.9375H15.7917L12.5029 16.2105C12.1359 16.5757 12.1345 17.1693 12.4998 17.5363C12.865 17.9034 13.4587 17.9047 13.8256 17.5395L18.7242 12.6645L18.7251 12.6636C19.0923 12.2971 19.0911 11.7016 18.725 11.3364Z" fill="white"/>
</g>
<defs>
<clipPath id="clip0_1367_770">
<rect width="19" height="24" fill="white"/>
</clipPath>
</defs>
</svg>
