<svg width="22" height="22" viewBox="0 0 22 22" fill="none" xmlns="http://www.w3.org/2000/svg">
<path d="M19.5105 7.58653L14.0556 6.79376L11.6171 1.8502C11.5505 1.71485 11.4409 1.60528 11.3056 1.53868C10.9661 1.3711 10.5536 1.51075 10.3839 1.8502L7.94544 6.79376L2.49055 7.58653C2.34016 7.60802 2.20266 7.67891 2.09739 7.78634C1.97012 7.91715 1.89999 8.09313 1.9024 8.27563C1.90482 8.45812 1.97959 8.63218 2.11028 8.75958L6.05696 12.6074L5.12454 18.0408C5.10267 18.1672 5.11666 18.2972 5.16491 18.4161C5.21316 18.5349 5.29375 18.6379 5.39754 18.7132C5.50132 18.7886 5.62415 18.8334 5.75209 18.8425C5.88004 18.8517 6.00798 18.8247 6.12141 18.7649L11.0005 16.1996L15.8796 18.7649C16.0128 18.8358 16.1675 18.8594 16.3158 18.8336C16.6896 18.7691 16.9409 18.4147 16.8765 18.0408L15.9441 12.6074L19.8907 8.75958C19.9982 8.65431 20.0691 8.5168 20.0906 8.36641C20.1486 7.99044 19.8865 7.64239 19.5105 7.58653Z" fill="#E8D41F"/>
</svg>
