<svg width="25" height="24" viewBox="0 0 25 24" xmlns="http://www.w3.org/2000/svg">
<path d="M12.3498 5.62573C11.0887 5.6255 9.85577 5.99925 8.80706 6.69973C7.75834 7.40021 6.94091 8.39594 6.45812 9.56101C5.97534 10.7261 5.8489 12.0082 6.09478 13.2451C6.34066 14.482 6.94783 15.6183 7.8395 16.5101C8.73117 17.402 9.86729 18.0094 11.1042 18.2555C12.3411 18.5016 13.6232 18.3754 14.7883 17.8929C15.9535 17.4103 16.9494 16.5931 17.6501 15.5445C18.3508 14.496 18.7248 13.2632 18.7248 12.002C18.723 10.3117 18.0509 8.69105 16.8557 7.49568C15.6606 6.30031 14.0401 5.62782 12.3498 5.62573Z"/>
<path d="M22.485 10.877H20.9863C20.6879 10.877 20.4017 10.9955 20.1906 11.2065C19.9796 11.4175 19.8611 11.7037 19.8611 12.0021C19.8611 12.3006 19.9796 12.5868 20.1906 12.7978C20.4017 13.0088 20.6879 13.1273 20.9863 13.1273H22.485C22.7834 13.1273 23.0696 13.0088 23.2806 12.7978C23.4916 12.5868 23.6102 12.3006 23.6102 12.0021C23.6102 11.7037 23.4916 11.4175 23.2806 11.2065C23.0696 10.9955 22.7834 10.877 22.485 10.877Z" />
<path d="M12.3498 19.4998C12.0516 19.5002 11.7657 19.6189 11.5549 19.8299C11.3441 20.0408 11.2256 20.3267 11.2253 20.6249V22.1251C11.2253 22.4233 11.3438 22.7093 11.5547 22.9202C11.7655 23.131 12.0515 23.2495 12.3497 23.2495C12.6479 23.2495 12.9339 23.131 13.1447 22.9202C13.3556 22.7093 13.4741 22.4233 13.4741 22.1251V20.6249C13.4738 20.3267 13.3554 20.0408 13.1446 19.8299C12.9338 19.6189 12.648 19.5002 12.3498 19.4998Z" />
<path d="M4.85681 12.0021C4.85656 11.7039 4.73803 11.418 4.52723 11.2071C4.31643 10.9961 4.03057 10.8774 3.73236 10.877H2.23383C1.93541 10.877 1.64922 10.9955 1.4382 11.2065C1.22719 11.4175 1.10864 11.7037 1.10864 12.0021C1.10864 12.3006 1.22719 12.5868 1.4382 12.7978C1.64922 13.0088 1.93541 13.1273 2.23383 13.1273H3.73236C4.03058 13.1269 4.31643 13.0082 4.52723 12.7972C4.73803 12.5863 4.85656 12.3003 4.85681 12.0021Z" />
<path d="M12.3499 4.50045C12.6481 4.5 12.9339 4.38129 13.1447 4.17036C13.3555 3.95942 13.474 3.67349 13.4743 3.37528V1.87509C13.4743 1.57689 13.3558 1.29091 13.145 1.08005C12.9341 0.869191 12.6481 0.750732 12.3499 0.750732C12.0517 0.750732 11.7658 0.869191 11.5549 1.08005C11.344 1.29091 11.2256 1.57689 11.2256 1.87509V3.37528C11.2258 3.67347 11.3443 3.9594 11.5551 4.17034C11.7658 4.38128 12.0517 4.5 12.3499 4.50045Z" />
<path d="M19.2449 6.69707L20.3057 5.6363C20.4105 5.53197 20.4936 5.408 20.5504 5.2715C20.6072 5.135 20.6365 4.98864 20.6366 4.8408C20.6368 4.69296 20.6077 4.54655 20.5512 4.40993C20.4947 4.27332 20.4118 4.14919 20.3073 4.04465C20.2028 3.94011 20.0786 3.85722 19.942 3.80071C19.8054 3.7442 19.659 3.71519 19.5112 3.71533C19.3633 3.71548 19.217 3.74478 19.0805 3.80155C18.944 3.85833 18.82 3.94147 18.7157 4.04621L17.6549 5.10701C17.5501 5.21134 17.467 5.33531 17.4102 5.47181C17.3534 5.60831 17.3241 5.75467 17.324 5.90251C17.3238 6.05035 17.3528 6.19677 17.4094 6.33338C17.4659 6.46999 17.5488 6.59412 17.6533 6.69865C17.7578 6.80319 17.882 6.88609 18.0186 6.94259C18.1552 6.9991 18.3016 7.02811 18.4494 7.02797C18.5973 7.02782 18.7436 6.99852 18.8801 6.94174C19.0166 6.88496 19.1406 6.80182 19.2449 6.69707Z"/>
<path d="M19.245 17.3073C19.1407 17.2026 19.0167 17.1195 18.8802 17.0627C18.7437 17.006 18.5974 16.9767 18.4496 16.9766C18.3017 16.9764 18.1554 17.0055 18.0188 17.062C17.8822 17.1185 17.7581 17.2014 17.6535 17.3059C17.549 17.4104 17.4661 17.5345 17.4096 17.6711C17.3531 17.8077 17.3241 17.9541 17.3242 18.1019C17.3243 18.2497 17.3536 18.3961 17.4104 18.5326C17.4671 18.6691 17.5502 18.793 17.6549 18.8974L18.7157 19.9581C18.8201 20.0628 18.944 20.146 19.0805 20.2027C19.217 20.2594 19.3634 20.2887 19.5112 20.2889C19.659 20.289 19.8054 20.26 19.942 20.2035C20.0786 20.1469 20.2027 20.0641 20.3072 19.9595C20.4117 19.855 20.4946 19.7309 20.5511 19.5943C20.6076 19.4577 20.6367 19.3113 20.6365 19.1635C20.6364 19.0157 20.6071 18.8693 20.5504 18.7329C20.4936 18.5964 20.4105 18.4724 20.3058 18.3681L19.245 17.3073Z"/>
<path d="M5.45456 17.307L4.39378 18.3678C4.28901 18.4722 4.20583 18.5961 4.14903 18.7326C4.09223 18.8691 4.06291 19.0155 4.06274 19.1634C4.06258 19.3112 4.09159 19.4577 4.1481 19.5943C4.20461 19.7309 4.28751 19.8551 4.39206 19.9596C4.49661 20.0642 4.62075 20.1471 4.75739 20.2036C4.89402 20.2601 5.04045 20.2891 5.18831 20.2889C5.33617 20.2888 5.48254 20.2595 5.61905 20.2026C5.75556 20.1458 5.87952 20.0627 5.98385 19.9579L7.04465 18.8971C7.14935 18.7928 7.23246 18.6688 7.28921 18.5323C7.34595 18.3958 7.37523 18.2495 7.37536 18.1017C7.37549 17.9538 7.34647 17.8075 7.28996 17.6709C7.23345 17.5343 7.15057 17.4102 7.04604 17.3056C6.94152 17.2011 6.81741 17.1182 6.68082 17.0617C6.54422 17.0052 6.39783 16.9762 6.25001 16.9763C6.10219 16.9764 5.95585 17.0057 5.81936 17.0625C5.68286 17.1192 5.5589 17.2023 5.45456 17.307Z"/>
<path d="M5.45483 6.69703C5.55921 6.80158 5.68316 6.88454 5.81962 6.94116C5.95607 6.99778 6.10234 7.02696 6.25008 7.02702C6.39781 7.02708 6.54411 6.99803 6.68061 6.94152C6.81711 6.88502 6.94113 6.80216 7.0456 6.6977C7.15006 6.59324 7.23291 6.46921 7.28942 6.33271C7.34592 6.19621 7.37498 6.04991 7.37491 5.90218C7.37485 5.75444 7.34567 5.60817 7.28905 5.47172C7.23243 5.33527 7.14947 5.21131 7.04492 5.10694L5.98412 4.04614C5.87982 3.94125 5.75585 3.85798 5.61931 3.80109C5.48277 3.7442 5.33634 3.71481 5.18843 3.7146C5.04051 3.71439 4.89401 3.74338 4.75731 3.79989C4.62061 3.8564 4.49641 3.93933 4.39181 4.04392C4.28722 4.14852 4.20429 4.27272 4.14778 4.40942C4.09128 4.54611 4.06229 4.69262 4.0625 4.84054C4.06271 4.98845 4.0921 5.13488 4.14899 5.27142C4.20588 5.40795 4.28916 5.53193 4.39404 5.63623L5.45483 6.69703Z"/>
</svg>
