<svg width="23" height="24" viewBox="0 0 23 24" fill="none" xmlns="http://www.w3.org/2000/svg">
<path d="M11.3499 5.62573C10.0888 5.6255 8.85589 5.99925 7.80718 6.69973C6.75847 7.40021 5.94103 8.39594 5.45825 9.56101C4.97546 10.7261 4.84902 12.0082 5.0949 13.2451C5.34079 14.482 5.94796 15.6183 6.83963 16.5101C7.7313 17.402 8.86741 18.0094 10.1043 18.2555C11.3412 18.5016 12.6233 18.3754 13.7884 17.8929C14.9536 17.4103 15.9495 16.5931 16.6502 15.5445C17.3509 14.496 17.7249 13.2632 17.7249 12.002C17.7232 10.3117 17.051 8.69105 15.8559 7.49568C14.6607 6.30031 13.0403 5.62782 11.3499 5.62573Z" fill="#21E786"/>
<path d="M21.4851 10.877H19.9864C19.688 10.877 19.4018 10.9955 19.1908 11.2065C18.9798 11.4175 18.8612 11.7037 18.8612 12.0021C18.8612 12.3006 18.9798 12.5868 19.1908 12.7978C19.4018 13.0088 19.688 13.1273 19.9864 13.1273H21.4851C21.7835 13.1273 22.0697 13.0088 22.2808 12.7978C22.4918 12.5868 22.6103 12.3006 22.6103 12.0021C22.6103 11.7037 22.4918 11.4175 22.2808 11.2065C22.0697 10.9955 21.7835 10.877 21.4851 10.877Z" fill="#21E786"/>
<path d="M11.3498 19.4998C11.0516 19.5002 10.7657 19.6189 10.5549 19.8299C10.3441 20.0408 10.2256 20.3267 10.2253 20.6249V22.1251C10.2253 22.4233 10.3438 22.7093 10.5547 22.9202C10.7655 23.131 11.0515 23.2495 11.3497 23.2495C11.6479 23.2495 11.9339 23.131 12.1447 22.9202C12.3556 22.7093 12.4741 22.4233 12.4741 22.1251V20.6249C12.4738 20.3267 12.3554 20.0408 12.1446 19.8299C11.9338 19.6189 11.648 19.5002 11.3498 19.4998Z" fill="#21E786"/>
<path d="M3.85681 12.0021C3.85656 11.7039 3.73803 11.418 3.52723 11.2071C3.31643 10.9961 3.03057 10.8774 2.73236 10.877H1.23383C0.935412 10.877 0.649216 10.9955 0.438202 11.2065C0.227189 11.4175 0.108643 11.7037 0.108643 12.0021C0.108643 12.3006 0.227189 12.5868 0.438202 12.7978C0.649216 13.0088 0.935412 13.1273 1.23383 13.1273H2.73236C3.03058 13.1269 3.31643 13.0082 3.52723 12.7972C3.73803 12.5863 3.85656 12.3003 3.85681 12.0021Z" fill="#21E786"/>
<path d="M11.3499 4.50045C11.6481 4.5 11.9339 4.38129 12.1447 4.17036C12.3555 3.95942 12.474 3.67349 12.4743 3.37528V1.87509C12.4743 1.57689 12.3558 1.29091 12.145 1.08005C11.9341 0.869191 11.6481 0.750732 11.3499 0.750732C11.0517 0.750732 10.7658 0.869191 10.5549 1.08005C10.344 1.29091 10.2256 1.57689 10.2256 1.87509V3.37528C10.2258 3.67347 10.3443 3.9594 10.5551 4.17034C10.7658 4.38128 11.0517 4.5 11.3499 4.50045Z" fill="#21E786"/>
<path d="M18.2451 6.69707L19.3058 5.6363C19.4106 5.53197 19.4937 5.408 19.5505 5.2715C19.6073 5.135 19.6366 4.98864 19.6367 4.8408C19.6369 4.69296 19.6079 4.54655 19.5514 4.40993C19.4949 4.27332 19.412 4.14919 19.3074 4.04465C19.2029 3.94011 19.0788 3.85722 18.9421 3.80071C18.8055 3.7442 18.6591 3.71519 18.5113 3.71533C18.3634 3.71548 18.2171 3.74478 18.0806 3.80155C17.9441 3.85833 17.8201 3.94147 17.7158 4.04621L16.655 5.10701C16.5502 5.21134 16.4671 5.33531 16.4103 5.47181C16.3535 5.60831 16.3242 5.75467 16.3241 5.90251C16.324 6.05035 16.353 6.19677 16.4095 6.33338C16.466 6.46999 16.5489 6.59412 16.6534 6.69865C16.758 6.80319 16.8821 6.88609 17.0187 6.94259C17.1553 6.9991 17.3017 7.02811 17.4496 7.02797C17.5974 7.02782 17.7438 6.99852 17.8803 6.94174C18.0168 6.88496 18.1407 6.80182 18.2451 6.69707Z" fill="#21E786"/>
<path d="M18.2449 17.3073C18.1406 17.2026 18.0166 17.1195 17.8801 17.0627C17.7436 17.006 17.5973 16.9767 17.4494 16.9766C17.3016 16.9764 17.1552 17.0055 17.0186 17.062C16.882 17.1185 16.7579 17.2014 16.6534 17.3059C16.5489 17.4104 16.466 17.5345 16.4095 17.6711C16.353 17.8077 16.324 17.9541 16.3241 18.1019C16.3242 18.2497 16.3535 18.3961 16.4102 18.5326C16.467 18.6691 16.5501 18.793 16.6548 18.8974L17.7156 19.9581C17.8199 20.0628 17.9439 20.146 18.0804 20.2027C18.2169 20.2594 18.3632 20.2887 18.5111 20.2889C18.6589 20.289 18.8053 20.26 18.9419 20.2035C19.0785 20.1469 19.2026 20.0641 19.3071 19.9595C19.4116 19.855 19.4945 19.7309 19.551 19.5943C19.6075 19.4577 19.6365 19.3113 19.6364 19.1635C19.6363 19.0157 19.607 18.8693 19.5502 18.7329C19.4935 18.5964 19.4104 18.4724 19.3057 18.3681L18.2449 17.3073Z" fill="#21E786"/>
<path d="M4.45468 17.307L3.3939 18.3678C3.28913 18.4722 3.20596 18.5961 3.14915 18.7326C3.09235 18.8691 3.06303 19.0155 3.06287 19.1634C3.06271 19.3112 3.09171 19.4577 3.14822 19.5943C3.20473 19.7309 3.28763 19.8551 3.39218 19.9596C3.49673 20.0642 3.62088 20.1471 3.75751 20.2036C3.89414 20.2601 4.04058 20.2891 4.18843 20.2889C4.33629 20.2888 4.48266 20.2595 4.61917 20.2026C4.75568 20.1458 4.87964 20.0627 4.98397 19.9579L6.04477 18.8971C6.14948 18.7928 6.23258 18.6688 6.28933 18.5323C6.34608 18.3958 6.37535 18.2495 6.37548 18.1017C6.37561 17.9538 6.34659 17.8075 6.29008 17.6709C6.23358 17.5343 6.15069 17.4102 6.04616 17.3056C5.94164 17.2011 5.81753 17.1182 5.68094 17.0617C5.54435 17.0052 5.39795 16.9762 5.25013 16.9763C5.10231 16.9764 4.95597 17.0057 4.81948 17.0625C4.68299 17.1192 4.55902 17.2023 4.45468 17.307Z" fill="#21E786"/>
<path d="M4.45483 6.69703C4.55921 6.80158 4.68316 6.88454 4.81962 6.94116C4.95607 6.99778 5.10234 7.02696 5.25008 7.02702C5.39781 7.02708 5.54411 6.99803 5.68061 6.94152C5.81711 6.88502 5.94113 6.80216 6.0456 6.6977C6.15006 6.59324 6.23291 6.46921 6.28942 6.33271C6.34592 6.19621 6.37498 6.04991 6.37491 5.90218C6.37485 5.75444 6.34567 5.60817 6.28905 5.47172C6.23243 5.33527 6.14947 5.21131 6.04492 5.10694L4.98412 4.04614C4.87982 3.94125 4.75585 3.85798 4.61931 3.80109C4.48277 3.7442 4.33634 3.71481 4.18843 3.7146C4.04051 3.71439 3.89401 3.74338 3.75731 3.79989C3.62061 3.8564 3.49641 3.93933 3.39181 4.04392C3.28722 4.14852 3.20429 4.27272 3.14778 4.40942C3.09128 4.54611 3.06229 4.69262 3.0625 4.84054C3.06271 4.98845 3.0921 5.13488 3.14899 5.27142C3.20588 5.40795 3.28916 5.53193 3.39404 5.63623L4.45483 6.69703Z" fill="#21E786"/>
</svg>
