<svg aria-hidden="true" style="position: absolute; width: 0; height: 0; overflow: hidden;" version="1.1" xmlns="http://www.w3.org/2000/svg" xmlns:xlink="http://www.w3.org/1999/xlink">
<defs>
<symbol id="icon-arrow-down" viewBox="0 0 25 24">
<path d="M17.5 10L12.5 15L7.5 10" stroke="white" stroke-width="3" stroke-miterlimit="10" stroke-linecap="square" stroke-linejoin="round"/>
</symbol>
<symbol id="icon-arrow-right" viewBox="0 0 24 24" fill="none">
<path d="M9 5.5L16 12L9 18.5" stroke-width="4" stroke-miterlimit="10" stroke-linecap="square" stroke-linejoin="round"/>
</symbol>
<symbol id="icon-arrow-left" viewBox="0 0 24 24" fill="none">
<path d="M15 18.5L8 12L15 5.5" stroke-width="4" stroke-miterlimit="10" stroke-linecap="square" stroke-linejoin="round"/>
</symbol>
<symbol id="icon-circle" viewBox="0 0 30 30" fill="none">
<circle opacity="0.1" cx="15" cy="15" r="15" fill="white"/>
<circle cx="15" cy="15" r="7.5" fill="#888B8E"/>
</symbol>
<symbol id="icon-bag" viewBox="0 0 30 32">
<path fill="#21e786" style="fill: var(--color3, #21e786)" d="M20.493 9.194h0.265c3.488 0 6.318 2.769 6.318 6.166v6.794c0 3.397-2.831 6.154-6.318 6.154h-11.979c-3.488 0-6.318-2.757-6.318-6.154v-6.794c0-3.397 2.83-6.166 6.318-6.166h0.265c0.025-1.477 0.619-2.855 1.693-3.889 1.087-1.046 2.477-1.575 4.044-1.612 3.134 0 5.674 2.462 5.712 5.502zM12.065 6.622c-0.708 0.689-1.099 1.6-1.125 2.572h7.658c-0.038-2.018-1.731-3.655-3.816-3.655-0.973 0-1.984 0.382-2.717 1.083zM19.571 13.932c0.531 0 0.948-0.418 0.948-0.923v-1.428c0-0.505-0.417-0.923-0.948-0.923-0.518 0-0.948 0.418-0.948 0.923v1.428c0 0.505 0.43 0.923 0.948 0.923zM10.801 13.009c0 0.505-0.417 0.923-0.948 0.923-0.518 0-0.948-0.418-0.948-0.923v-1.428c0-0.505 0.43-0.923 0.948-0.923 0.531 0 0.948 0.418 0.948 0.923v1.428z"></path>
</symbol>
<symbol id="icon-connect" viewBox="0 0 37 32">
<path d="M36.211 25.263v3.158c0 1.742-1.417 3.158-3.158 3.158h-27.158c-2.787 0-5.053-2.266-5.053-5.053 0 0 0-21.455 0-21.474 0-2.787 2.266-5.053 5.053-5.053h23.368c1.047 0 1.895 0.849 1.895 1.895s-0.848 1.895-1.895 1.895h-23.368c-0.696 0-1.263 0.566-1.263 1.263s0.567 1.263 1.263 1.263h27.158c1.741 0 3.158 1.416 3.158 3.158v3.158h-6.316c-3.482 0-6.316 2.833-6.316 6.316s2.833 6.316 6.316 6.316h6.316z"></path>
</symbol>
<symbol id="icon-discord" viewBox="0 0 32 32">
<path fill="#fff" style="fill: var(--color4, #fff)" d="M25.786 8.338c-2.343-1.855-6.050-2.17-6.208-2.181-0.246-0.020-0.48 0.115-0.582 0.339-0.009 0.014-0.090 0.197-0.179 0.482 1.55 0.258 3.454 0.776 5.176 1.828 0.276 0.167 0.361 0.525 0.191 0.796-0.113 0.179-0.303 0.276-0.501 0.276-0.106 0-0.214-0.029-0.31-0.088-2.962-1.808-6.659-1.898-7.372-1.898s-4.412 0.090-7.372 1.898c-0.276 0.17-0.639 0.086-0.809-0.185-0.172-0.274-0.087-0.629 0.189-0.799 1.722-1.050 3.626-1.57 5.176-1.826-0.090-0.287-0.17-0.468-0.177-0.484-0.104-0.224-0.336-0.364-0.584-0.339-0.159 0.011-3.865 0.326-6.24 2.206-1.239 1.129-3.72 7.726-3.72 13.43 0 0.102 0.028 0.199 0.078 0.287 1.711 2.959 6.381 3.733 7.445 3.767 0.005 0 0.011 0 0.018 0 0.189 0 0.366-0.088 0.476-0.238l1.076-1.457c-2.904-0.737-4.387-1.991-4.472-2.066-0.244-0.21-0.267-0.577-0.051-0.817 0.214-0.24 0.586-0.263 0.83-0.052 0.035 0.032 2.766 2.312 8.137 2.312 5.38 0 8.112-2.289 8.14-2.312 0.244-0.208 0.614-0.188 0.83 0.054 0.214 0.24 0.191 0.604-0.053 0.814-0.085 0.075-1.568 1.328-4.472 2.066l1.076 1.457c0.11 0.149 0.287 0.238 0.476 0.238 0.007 0 0.014 0 0.018 0 1.065-0.034 5.735-0.808 7.445-3.767 0.051-0.088 0.078-0.185 0.078-0.287 0-5.703-2.481-12.301-3.753-13.454zM12.174 19.475c-1.138 0-2.060-1.036-2.060-2.317s0.922-2.317 2.060-2.317c1.138 0 2.060 1.036 2.060 2.317s-0.922 2.317-2.060 2.317zM19.826 19.475c-1.138 0-2.060-1.036-2.060-2.317s0.922-2.317 2.060-2.317c1.138 0 2.060 1.036 2.060 2.317s-0.922 2.317-2.060 2.317z"></path>
</symbol>
<symbol id="icon-facebook-1" viewBox="0 0 32 32">
<path d="M2.668 16.082c0.002 6.599 4.771 12.219 11.249 13.253v-9.376h-3.383v-3.877h3.387v-2.951c-0.151-1.399 0.323-2.792 1.296-3.803s2.341-1.535 3.735-1.429c1.001 0.016 1.999 0.106 2.987 0.268v3.299h-1.685c-0.58-0.076-1.164 0.116-1.586 0.524s-0.637 0.986-0.585 1.573v2.519h3.695l-0.591 3.878h-3.104v9.375c7.006-1.114 11.919-7.552 11.179-14.649s-6.872-12.371-13.956-11.999c-7.083 0.372-12.637 6.258-12.638 13.395z"></path>
</symbol>
<symbol id="icon-facebook" viewBox="0 0 32 32">
<path fill="#fff" style="fill: var(--color4, #fff)" d="M17.671 27.338c5.562-0.886 9.813-5.705 9.813-11.517 0-6.441-5.222-11.663-11.663-11.663s-11.663 5.222-11.663 11.663c0 5.812 4.251 10.631 9.813 11.517-0.011-0.027-0.017-0.056-0.017-0.087v-7.931c0-0.129-0.104-0.233-0.233-0.233h-2.333c-0.129 0-0.233-0.105-0.233-0.233v-2.799c0-0.129 0.104-0.233 0.233-0.233h2.333c0.129 0 0.233-0.104 0.233-0.233v-3.032c0-1.399 1.493-3.732 3.732-3.732h3.032c0.129 0 0.233 0.104 0.233 0.233v2.799c0 0.129-0.105 0.233-0.233 0.233h-1.4c-0.466 0-1.633 0.466-1.633 1.399v2.099c0 0.129 0.105 0.233 0.233 0.233h2.333c0.129 0 0.233 0.104 0.233 0.233v2.799c0 0.129-0.104 0.233-0.233 0.233h-2.333c-0.129 0-0.233 0.104-0.233 0.233v7.931c0 0.031-0.006 0.060-0.017 0.087z"></path>
</symbol>
<symbol id="icon-place" viewBox="0 0 32 32">
<path fill="#21e786" style="fill: var(--color3, #21e786)" d="M16 3.692c-4.75 0-8.615 3.962-8.615 8.833 0 6.921 7.806 14.067 8.138 14.367 0.137 0.124 0.307 0.185 0.478 0.185s0.341-0.061 0.478-0.184c0.332-0.301 8.138-7.447 8.138-14.368 0-4.871-3.865-8.833-8.615-8.833zM16 17.333c-2.639 0-4.786-2.185-4.786-4.872s2.147-4.872 4.786-4.872c2.639 0 4.786 2.185 4.786 4.872s-2.147 4.872-4.786 4.872z"></path>
</symbol>
<symbol id="icon-account" viewBox="0 0 32 32">
<path fill="#21e786" style="fill: var(--color3, #21e786)" d="M16 3.692c-3.579 0-6.49 2.912-6.49 6.49s2.912 6.49 6.49 6.49c3.579 0 6.49-2.912 6.49-6.49s-2.912-6.49-6.49-6.49z"></path>
<path fill="#21e786" style="fill: var(--color3, #21e786)" d="M24.075 20.913c-1.777-1.804-4.133-2.798-6.633-2.798h-2.885c-2.5 0-4.856 0.994-6.633 2.798-1.768 1.795-2.742 4.165-2.742 6.673 0 0.398 0.323 0.721 0.721 0.721h20.192c0.398 0 0.721-0.323 0.721-0.721 0-2.508-0.974-4.878-2.742-6.673z"></path>
</symbol>
<symbol id="icon-instagram" viewBox="0 0 32 32">
<path d="M10.926 3.766c1.312-0.060 1.731-0.074 5.074-0.074s3.762 0.015 5.073 0.074c1.311 0.059 2.206 0.269 2.99 0.572 0.82 0.31 1.564 0.794 2.18 1.421 0.627 0.614 1.11 1.357 1.419 2.178 0.304 0.783 0.512 1.678 0.573 2.987 0.060 1.315 0.074 1.733 0.074 5.075 0 3.343-0.015 3.762-0.074 5.074-0.059 1.309-0.269 2.204-0.573 2.987-0.309 0.821-0.793 1.566-1.419 2.181-0.615 0.627-1.359 1.11-2.18 1.419-0.783 0.304-1.678 0.512-2.987 0.573-1.313 0.060-1.732 0.074-5.075 0.074s-3.762-0.015-5.074-0.074c-1.309-0.059-2.204-0.269-2.987-0.573-0.821-0.309-1.566-0.793-2.181-1.419-0.626-0.615-1.111-1.358-1.42-2.18-0.303-0.783-0.511-1.678-0.572-2.987-0.060-1.315-0.074-1.733-0.074-5.075 0-3.343 0.015-3.762 0.074-5.073s0.269-2.206 0.572-2.99c0.31-0.821 0.795-1.565 1.421-2.18 0.614-0.626 1.358-1.111 2.178-1.42 0.783-0.303 1.678-0.511 2.987-0.572h0.001zM20.973 5.982c-1.298-0.059-1.687-0.072-4.973-0.072s-3.676 0.012-4.973 0.072c-1.201 0.055-1.852 0.255-2.286 0.424-0.574 0.224-0.985 0.489-1.415 0.92-0.408 0.397-0.723 0.881-0.92 1.415-0.169 0.434-0.369 1.085-0.424 2.286-0.059 1.298-0.072 1.687-0.072 4.973s0.012 3.676 0.072 4.973c0.055 1.201 0.255 1.852 0.424 2.286 0.197 0.534 0.511 1.018 0.92 1.415 0.397 0.408 0.882 0.723 1.415 0.92 0.434 0.169 1.085 0.369 2.286 0.424 1.298 0.059 1.686 0.072 4.973 0.072s3.676-0.012 4.973-0.072c1.201-0.055 1.852-0.255 2.286-0.424 0.574-0.224 0.985-0.489 1.415-0.92 0.408-0.397 0.723-0.882 0.92-1.415 0.169-0.434 0.369-1.085 0.424-2.286 0.059-1.298 0.072-1.687 0.072-4.973s-0.012-3.676-0.072-4.973c-0.055-1.201-0.255-1.852-0.424-2.286-0.224-0.574-0.489-0.985-0.92-1.415-0.397-0.408-0.881-0.723-1.415-0.92-0.434-0.169-1.085-0.369-2.286-0.424zM14.428 19.794c0.878 0.366 1.856 0.415 2.766 0.14s1.697-0.858 2.225-1.649c0.528-0.791 0.766-1.74 0.672-2.687s-0.514-1.831-1.187-2.502c-0.429-0.429-0.949-0.758-1.52-0.962s-1.181-0.279-1.785-0.22c-0.604 0.060-1.188 0.252-1.708 0.564s-0.966 0.736-1.303 1.241c-0.337 0.505-0.558 1.078-0.648 1.679s-0.044 1.213 0.132 1.794c0.176 0.581 0.479 1.116 0.886 1.566s0.91 0.804 1.471 1.036zM11.527 11.527c0.587-0.587 1.285-1.053 2.052-1.371s1.59-0.482 2.421-0.482c0.831 0 1.653 0.164 2.421 0.482s1.465 0.784 2.052 1.371c0.587 0.587 1.054 1.285 1.371 2.052s0.481 1.59 0.481 2.421c0 0.831-0.164 1.653-0.481 2.421s-0.784 1.465-1.371 2.052c-1.186 1.186-2.795 1.853-4.473 1.853s-3.287-0.666-4.473-1.853c-1.186-1.186-1.853-2.795-1.853-4.473s0.666-3.287 1.853-4.473zM23.729 10.616c0.146-0.137 0.262-0.302 0.343-0.486s0.124-0.381 0.127-0.581c0.003-0.2-0.034-0.399-0.11-0.584s-0.187-0.354-0.329-0.495-0.31-0.253-0.495-0.328c-0.185-0.075-0.384-0.113-0.584-0.11s-0.398 0.046-0.581 0.127-0.348 0.197-0.486 0.343c-0.267 0.283-0.413 0.659-0.408 1.048s0.163 0.761 0.438 1.036c0.275 0.275 0.647 0.432 1.036 0.438s0.765-0.141 1.048-0.408z"></path>
</symbol>
<symbol id="icon-linkedin" viewBox="0 0 32 32">
<path d="M26.486 3.692h-20.976c-1.005 0-1.817 0.793-1.817 1.774v21.063c0 0.981 0.813 1.779 1.817 1.779h20.976c1.005 0 1.822-0.798 1.822-1.774v-21.067c0-0.981-0.817-1.774-1.822-1.774zM10.995 24.668h-3.654v-11.75h3.654v11.75zM9.168 11.317c-1.173 0-2.12-0.947-2.12-2.115s0.947-2.115 2.12-2.115c1.168 0 2.115 0.947 2.115 2.115 0 1.163-0.947 2.115-2.115 2.115zM24.668 24.668h-3.649v-5.712c0-1.361-0.024-3.115-1.899-3.115-1.899 0-2.188 1.486-2.188 3.019v5.808h-3.644v-11.75h3.5v1.606h0.048c0.486-0.923 1.678-1.899 3.452-1.899 3.697 0 4.38 2.433 4.38 5.596v6.447z"></path>
</symbol>
<symbol id="icon-mail" viewBox="0 0 32 32">
<path fill="#21e786" style="fill: var(--color3, #21e786)" d="M3.692 14.477v12.756l8.233-6.378-8.233-6.378z"></path>
<path fill="#21e786" style="fill: var(--color3, #21e786)" d="M25.171 11.16v3.922l2.431-1.884-2.431-2.038z"></path>
<path fill="#21e786" style="fill: var(--color3, #21e786)" d="M16.467 3.862c-0.27-0.226-0.663-0.226-0.932 0l-1.92 1.609h4.772l-1.92-1.609z"></path>
<path fill="#21e786" style="fill: var(--color3, #21e786)" d="M6.83 11.16l-2.431 2.038 2.431 1.884v-3.922z"></path>
<path fill="#21e786" style="fill: var(--color3, #21e786)" d="M13.352 21.577l-8.688 6.731h22.671l-8.688-6.731h-5.295z"></path>
<path fill="#21e786" style="fill: var(--color3, #21e786)" d="M20.075 20.855l8.233 6.378v-12.756l-8.233 6.378z"></path>
<path fill="#21e786" style="fill: var(--color3, #21e786)" d="M15.817 12.315c-0.587 0-1.195 0.569-1.195 1.52 0 0.968 0.592 1.618 1.146 1.618 0.583 0 1.061-0.679 1.095-1.533l0.001-0.181c-0.026-0.843-0.449-1.424-1.047-1.424z"></path>
<path fill="#21e786" style="fill: var(--color3, #21e786)" d="M18.647 20.134l5.075-3.932v-8.568c0-0.398-0.324-0.721-0.724-0.721h-13.997c-0.4 0-0.724 0.323-0.724 0.721v8.568l5.075 3.932h5.295zM10.896 15.226c-0.346-1.309-0.172-2.69 0.49-3.887s1.739-2.082 3.034-2.492c1.367-0.433 2.818-0.306 4.086 0.36s2.195 1.784 2.609 3.151c0.002 0.007 0.004 0.015 0.006 0.022 0.275 1.027 0.194 1.996-0.264 3.143-0.31 0.775-1.068 1.603-2.27 1.603-0.436 0-0.854-0.178-1.177-0.501-0.076-0.077-0.145-0.16-0.207-0.248-0.406 0.329-0.898 0.519-1.433 0.519-0.7 0-1.38-0.338-1.867-0.928-0.469-0.569-0.727-1.326-0.727-2.132 0-0.809 0.275-1.558 0.774-2.109 0.492-0.543 1.173-0.854 1.869-0.854 0.383 0 0.746 0.091 1.073 0.262 0.063-0.334 0.358-0.587 0.711-0.587h0.004c0.4 0.002 0.722 0.326 0.72 0.725l-0.020 4.006c-0.001 0.123 0.048 0.246 0.131 0.328 0.028 0.029 0.086 0.077 0.151 0.077 0.584 0 0.841-0.486 0.924-0.694 0.338-0.847 0.402-1.514 0.214-2.227-0.303-0.989-0.975-1.798-1.894-2.28-0.922-0.484-1.978-0.576-2.972-0.261-1.96 0.621-3.085 2.659-2.563 4.638 0.434 1.644 1.926 2.825 3.628 2.872 0.4 0.011 0.715 0.343 0.704 0.741-0.011 0.391-0.333 0.701-0.723 0.701-0.007 0-0.014 0-0.020-0-1.122-0.031-2.229-0.428-3.119-1.118-0.924-0.717-1.57-1.695-1.869-2.829z"></path>
</symbol>
<symbol id="icon-phone" viewBox="0 0 32 32">
<path fill="#21e786" style="fill: var(--color3, #21e786)" d="M26.333 19.849c-1.507 0-2.987-0.236-4.389-0.699-0.687-0.234-1.532-0.019-1.951 0.411l-2.768 2.089c-3.21-1.713-5.187-3.69-6.877-6.876l2.028-2.696c0.527-0.526 0.716-1.295 0.489-2.016-0.465-1.41-0.702-2.889-0.702-4.396 0-1.089-0.886-1.975-1.975-1.975h-4.521c-1.089 0-1.975 0.886-1.975 1.975 0 12.484 10.156 22.64 22.64 22.64 1.089 0 1.975-0.886 1.975-1.975v-4.508c-0-1.089-0.886-1.975-1.975-1.975z"></path>
</symbol>
<symbol id="icon-telegram-1" viewBox="0 0 32 32">
<path fill="#fff" style="fill: var(--color4, #fff)" d="M31.396 3.23c-0.546-0.411-1.403-0.47-2.29-0.154h-0.001c-0.932 0.332-26.391 10.027-27.427 10.423-0.188 0.058-1.835 0.603-1.665 1.818 0.151 1.095 1.475 1.549 1.636 1.601l6.472 1.968c0.429 1.269 2.012 5.951 2.362 6.951 0.218 0.623 0.574 1.443 1.198 1.611 0.547 0.187 1.092 0.016 1.444-0.229l3.957-3.259 6.388 4.423 0.152 0.081c0.434 0.171 0.849 0.256 1.246 0.256 0.306 0 0.601-0.051 0.881-0.153 0.957-0.349 1.34-1.159 1.38-1.25l4.771-22.019c0.291-1.176-0.113-1.774-0.505-2.068zM13.829 19.674l-2.183 5.169-2.183-6.462 16.739-10.985-12.373 12.277z"></path>
</symbol>
<symbol id="icon-telegram-2" viewBox="0 0 32 32">
<path d="M28.308 16c0 6.797-5.51 12.308-12.308 12.308s-12.308-5.51-12.308-12.308c0-6.797 5.51-12.308 12.308-12.308s12.308 5.51 12.308 12.308zM16.44 12.778c-1.197 0.498-3.59 1.528-7.178 3.092-0.583 0.232-0.888 0.458-0.916 0.68-0.047 0.375 0.422 0.522 1.061 0.723 0.087 0.027 0.177 0.056 0.269 0.086 0.628 0.204 1.474 0.443 1.913 0.453 0.399 0.009 0.844-0.156 1.335-0.493 3.352-2.263 5.083-3.407 5.191-3.431 0.077-0.017 0.183-0.039 0.255 0.025s0.065 0.185 0.057 0.218c-0.046 0.198-1.888 1.91-2.841 2.796-0.297 0.276-0.508 0.472-0.551 0.517-0.097 0.1-0.195 0.195-0.289 0.286-0.584 0.563-1.022 0.985 0.024 1.674 0.503 0.331 0.905 0.605 1.306 0.878 0.438 0.298 0.875 0.596 1.441 0.967 0.144 0.094 0.282 0.192 0.416 0.288 0.51 0.364 0.968 0.69 1.534 0.638 0.329-0.030 0.669-0.34 0.841-1.262 0.408-2.18 1.209-6.902 1.394-8.849 0.016-0.171-0.004-0.389-0.021-0.485s-0.051-0.232-0.175-0.333c-0.147-0.12-0.375-0.145-0.477-0.143-0.463 0.008-1.173 0.255-4.591 1.677z"></path>
</symbol>
<symbol id="icon-tiktok" viewBox="0 0 32 32">
<path fill="#fff" style="fill: var(--color4, #fff)" d="M25.377 3.692h-18.755c-1.616 0-2.93 1.315-2.93 2.93v18.755c0 1.616 1.315 2.93 2.93 2.93h18.755c1.616 0 2.93-1.315 2.93-2.93v-18.755c0-1.616-1.315-2.93-2.93-2.93zM23.036 14.431c-0.133 0.012-0.268 0.021-0.404 0.021-1.537 0-2.888-0.791-3.674-1.986 0 3.135 0 6.702 0 6.762 0 2.76-2.238 4.998-4.997 4.998s-4.998-2.238-4.998-4.998 2.238-4.998 4.998-4.998c0.104 0 0.206 0.009 0.309 0.016v2.463c-0.103-0.012-0.203-0.031-0.309-0.031-1.409 0-2.551 1.142-2.551 2.551s1.142 2.551 2.551 2.551c1.409 0 2.653-1.11 2.653-2.519 0-0.056 0.025-11.484 0.025-11.484h2.354c0.222 2.105 1.921 3.766 4.044 3.918v2.737z"></path>
</symbol>
<symbol id="icon-twitter" viewBox="0 0 32 32">
<path fill="#fff" style="fill: var(--color4, #fff)" d="M26.192 8.24c1.143-0.715 1.998-1.841 2.406-3.167-1.074 0.667-2.249 1.136-3.474 1.389-1.699-1.88-4.39-2.338-6.57-1.117s-3.309 3.818-2.757 6.34c-4.399-0.231-8.497-2.405-11.274-5.982-1.45 2.617-0.709 5.961 1.693 7.644-0.869-0.029-1.718-0.275-2.477-0.718 0 0.024 0 0.048 0 0.072 0.001 2.726 1.836 5.073 4.389 5.614-0.806 0.229-1.651 0.263-2.471 0.099 0.718 2.331 2.771 3.928 5.111 3.975-1.938 1.592-4.331 2.455-6.795 2.451-0.437 0.001-0.873-0.026-1.307-0.079 2.502 1.682 5.413 2.575 8.387 2.572 4.137 0.030 8.113-1.677 11.038-4.738s4.556-7.222 4.527-11.551c0-0.248-0.006-0.495-0.017-0.74 1.071-0.81 1.996-1.814 2.731-2.964-0.998 0.463-2.057 0.767-3.141 0.902z"></path>
</symbol>
<symbol id="icon-youtube" viewBox="0 0 32 32">
<path fill="#fff" style="fill: var(--color4, #fff)" d="M29.849 8.519c-0.272-1.438-1.569-2.485-3.074-2.812-2.252-0.457-6.419-0.784-10.928-0.784-4.506 0-8.741 0.327-10.995 0.784-1.502 0.327-2.802 1.308-3.074 2.812-0.275 1.635-0.547 3.923-0.547 6.865s0.272 5.231 0.614 6.865c0.275 1.438 1.572 2.485 3.074 2.812 2.391 0.457 6.489 0.784 10.998 0.784s8.607-0.327 10.998-0.784c1.502-0.327 2.799-1.308 3.074-2.812 0.272-1.635 0.614-3.989 0.683-6.865-0.139-2.942-0.48-5.231-0.822-6.865zM12.159 19.962v-9.154l8.333 4.577-8.333 4.577z"></path>
</symbol>
<symbol id="icon-star" viewBox="0 0 32 32">
<path fill="#e8d41f" style="fill: var(--color5, #e8d41f)" d="M15.588 2.262c-0.158 0.069-0.289 0.175-0.387 0.306l-0.002 0.003c-0.060 0.097-0.903 1.769-1.875 3.713-1.267 2.538-1.798 3.552-1.879 3.585-0.121 0.052-1.033 0.193-4.3 0.665-2.967 0.429-3.684 0.55-3.887 0.653-0.236 0.119-0.423 0.407-0.465 0.717-0.064 0.464-0.009 0.529 2.611 3.098 1.325 1.299 2.631 2.576 2.905 2.841l0.496 0.479-0.669 3.907c-0.368 2.148-0.671 4.031-0.671 4.182 0 0.522 0.364 0.922 0.895 0.985 0.303 0.036 0.295 0.039 5.012-2.442l2.627-1.383 2.627 1.383c4.717 2.481 4.71 2.479 5.012 2.442 0.503-0.041 0.895-0.459 0.895-0.969 0-0.007-0-0.014-0-0.022l0 0.001c0-0.153-0.303-2.033-0.671-4.18l-0.669-3.903 0.496-0.48c0.273-0.265 1.587-1.548 2.918-2.854 2.435-2.387 2.614-2.589 2.618-2.94 0.001-0.268-0.164-0.634-0.353-0.778-0.223-0.17-0.813-0.273-5.345-0.931l-3.057-0.444-1.77-3.548c-0.975-1.952-1.836-3.651-1.914-3.775-0.263-0.41-0.733-0.532-1.197-0.313z"></path>
</symbol>
<symbol id="icon-sun" viewBox="0 0 32 32">
<path d="M15.987 7.5c-1.682-0-3.325 0.498-4.724 1.432s-2.488 2.262-3.132 3.815c-0.644 1.553-0.812 3.263-0.484 4.912s1.137 3.164 2.326 4.353c1.189 1.189 2.704 1.999 4.353 2.327s3.359 0.16 4.912-0.483c1.554-0.643 2.881-1.733 3.816-3.131s1.433-3.042 1.433-4.723c-0.002-2.254-0.899-4.415-2.492-6.008s-3.754-2.49-6.008-2.493z"></path>
<path d="M29.501 14.503h-1.998c-0.398 0-0.78 0.158-1.061 0.439s-0.439 0.663-0.439 1.061c0 0.398 0.158 0.78 0.439 1.061s0.663 0.439 1.061 0.439h1.998c0.398 0 0.779-0.158 1.061-0.439s0.439-0.663 0.439-1.061c0-0.398-0.158-0.779-0.439-1.061s-0.663-0.439-1.061-0.439z"></path>
<path d="M15.987 26c-0.398 0.001-0.779 0.159-1.060 0.44s-0.439 0.663-0.439 1.060v2c0 0.398 0.158 0.779 0.439 1.060s0.663 0.439 1.060 0.439 0.779-0.158 1.060-0.439c0.281-0.281 0.439-0.662 0.439-1.060v-2c-0-0.398-0.158-0.779-0.439-1.060s-0.662-0.439-1.060-0.44z"></path>
<path d="M5.996 16.003c-0-0.398-0.158-0.779-0.439-1.060s-0.662-0.44-1.060-0.44h-1.998c-0.398 0-0.779 0.158-1.061 0.439s-0.439 0.663-0.439 1.061c0 0.398 0.158 0.78 0.439 1.061s0.663 0.439 1.061 0.439h1.998c0.398-0.001 0.779-0.159 1.060-0.44s0.439-0.663 0.439-1.060z"></path>
<path d="M15.987 6c0.398-0.001 0.779-0.159 1.060-0.44s0.439-0.662 0.439-1.060v-2c0-0.398-0.158-0.779-0.439-1.060s-0.662-0.439-1.060-0.439-0.779 0.158-1.060 0.439c-0.281 0.281-0.439 0.662-0.439 1.060v2c0 0.398 0.158 0.779 0.439 1.060s0.662 0.44 1.060 0.44z"></path>
<path d="M25.18 8.929l1.414-1.414c0.14-0.139 0.251-0.304 0.326-0.486s0.115-0.377 0.115-0.574c0-0.197-0.039-0.392-0.114-0.574s-0.186-0.348-0.325-0.487c-0.139-0.139-0.305-0.25-0.487-0.325s-0.377-0.114-0.575-0.114c-0.197 0-0.392 0.039-0.574 0.115s-0.347 0.187-0.486 0.326l-1.414 1.414c-0.14 0.139-0.25 0.304-0.326 0.486s-0.115 0.377-0.115 0.574c-0 0.197 0.038 0.392 0.114 0.575s0.186 0.348 0.325 0.487c0.139 0.139 0.305 0.25 0.487 0.325s0.377 0.114 0.574 0.114c0.197-0 0.392-0.039 0.574-0.115s0.347-0.187 0.486-0.326z"></path>
<path d="M25.18 23.076c-0.139-0.14-0.304-0.25-0.486-0.326s-0.377-0.115-0.574-0.115c-0.197-0-0.392 0.039-0.574 0.114s-0.348 0.186-0.487 0.325c-0.139 0.139-0.25 0.305-0.325 0.487s-0.114 0.377-0.114 0.574c0 0.197 0.039 0.392 0.115 0.574s0.187 0.347 0.326 0.486l1.414 1.414c0.139 0.14 0.304 0.251 0.486 0.326s0.377 0.115 0.574 0.115c0.197 0 0.392-0.039 0.574-0.114s0.348-0.186 0.487-0.325c0.139-0.139 0.25-0.305 0.325-0.487s0.114-0.377 0.114-0.574c-0-0.197-0.039-0.392-0.115-0.574s-0.186-0.347-0.326-0.486l-1.414-1.414z"></path>
<path d="M6.793 23.076l-1.414 1.414c-0.14 0.139-0.251 0.304-0.326 0.486s-0.115 0.377-0.115 0.574c-0 0.197 0.038 0.392 0.114 0.575s0.186 0.348 0.325 0.487c0.139 0.139 0.305 0.25 0.487 0.325s0.377 0.114 0.575 0.114c0.197-0 0.392-0.039 0.574-0.115s0.347-0.187 0.486-0.326l1.414-1.414c0.14-0.139 0.25-0.304 0.326-0.486s0.115-0.377 0.115-0.574c0-0.197-0.039-0.392-0.114-0.574s-0.186-0.348-0.325-0.487c-0.139-0.139-0.305-0.25-0.487-0.325s-0.377-0.114-0.574-0.114c-0.197 0-0.392 0.039-0.574 0.115s-0.347 0.187-0.486 0.326z"></path>
<path d="M6.793 8.927c0.139 0.139 0.304 0.25 0.486 0.325s0.377 0.114 0.574 0.114c0.197 0 0.392-0.039 0.574-0.114s0.347-0.186 0.487-0.325c0.139-0.139 0.25-0.305 0.325-0.487s0.114-0.377 0.114-0.574c-0-0.197-0.039-0.392-0.114-0.574s-0.186-0.347-0.325-0.486l-1.414-1.414c-0.139-0.14-0.304-0.251-0.486-0.327s-0.377-0.115-0.575-0.115c-0.197-0-0.393 0.038-0.575 0.114s-0.348 0.186-0.487 0.325c-0.139 0.139-0.25 0.305-0.325 0.487s-0.114 0.378-0.114 0.575c0 0.197 0.039 0.392 0.115 0.574s0.187 0.347 0.327 0.486l1.414 1.414z"></path>
</symbol>
</defs>
</svg>
